<svg width="24" height="24" viewBox="0 0 24 24" fill="none" xmlns="http://www.w3.org/2000/svg">
<path d="M22.19 15.3001L19.3 12.4201C19.0764 12.1967 18.803 12.0295 18.5023 11.9322C18.2016 11.8348 17.8821 11.8101 17.57 11.8601C17.2734 11.9093 16.9916 12.0248 16.7458 12.1979C16.4999 12.3711 16.2963 12.5974 16.15 12.8601L15.53 13.6601C15.4841 13.7181 15.4266 13.7659 15.3612 13.8003C15.2957 13.8348 15.2238 13.8551 15.15 13.8601C15.078 13.8647 15.0059 13.8537 14.9386 13.8278C14.8713 13.8019 14.8103 13.7618 14.76 13.7101L10.32 9.24013C10.2691 9.18716 10.2295 9.12437 10.2038 9.05559C10.178 8.98682 10.1665 8.9135 10.17 8.84013C10.1763 8.76807 10.1973 8.69807 10.2317 8.63444C10.2661 8.57081 10.3132 8.51489 10.37 8.47013L11.17 7.85013C11.4327 7.70384 11.659 7.50019 11.8322 7.25434C12.0053 7.00849 12.1208 6.72677 12.17 6.43013C12.2216 6.11647 12.1978 5.79501 12.1004 5.49241C12.003 5.18981 11.8349 4.91478 11.61 4.69013L8.69999 1.81013C8.17011 1.30573 7.46656 1.02441 6.73499 1.02441C6.00343 1.02441 5.29988 1.30573 4.76999 1.81013L1.65999 4.93013C0.789994 5.79013 0.779994 7.26013 1.65999 9.31013C2.18173 10.6295 2.9296 11.8478 3.86999 12.9101L11.13 20.1701C12.1924 21.1105 13.4106 21.8584 14.73 22.3801C15.5501 22.7479 16.4321 22.9583 17.33 23.0001C17.6561 23.0181 17.9824 22.9688 18.2886 22.8553C18.5949 22.7417 18.8745 22.5664 19.11 22.3401L22.23 19.2301C22.7432 18.7023 23.0269 17.993 23.0194 17.2569C23.0119 16.5208 22.7138 15.8174 22.19 15.3001ZM20.74 17.7801L17.62 20.8901C17.03 21.3201 13.74 19.8901 12.54 18.7201L5.27999 11.4601C4.07999 10.2501 2.67999 7.00013 3.10999 6.38013L6.21999 3.26013C6.35647 3.13504 6.53487 3.06566 6.71999 3.06566C6.90512 3.06566 7.08352 3.13504 7.21999 3.26013L10.1 6.09013L9.09999 6.85013C8.81219 7.07492 8.57456 7.3574 8.40235 7.67943C8.23013 8.00147 8.12715 8.35595 8.09999 8.72013C8.0756 9.08766 8.12989 9.45616 8.25922 9.80105C8.38855 10.1459 8.58996 10.4593 8.84999 10.7201L13.29 15.1601C13.5493 15.4223 13.8624 15.6251 14.2077 15.7546C14.553 15.8841 14.9222 15.9372 15.29 15.9101C15.6542 15.883 16.0087 15.78 16.3307 15.6078C16.6527 15.4356 16.9352 15.1979 17.16 14.9101L17.83 14.0501V14.0001V13.9101L20.72 16.7901C20.845 16.9235 20.9163 17.0985 20.92 17.2813C20.9237 17.4641 20.8596 17.6418 20.74 17.7801Z" fill="white"/>
</svg>
