<svg width="40" height="26" viewBox="0 0 40 26" fill="none" xmlns="http://www.w3.org/2000/svg">
<path d="M39.0829 1.76071C39.3623 0.744917 39.0829 0 37.7614 0H33.3838C32.27 0 31.7609 0.64443 31.4815 1.35221C31.4815 1.35221 29.2558 7.29188 26.1018 11.1432C25.0838 12.2638 24.6187 12.6177 24.0637 12.6177C23.7863 12.6177 23.3831 12.2638 23.3831 11.248V1.76071C23.3831 0.541758 23.0617 0 22.1335 0H15.2547C14.56 0 14.1408 0.563603 14.1408 1.10099C14.1408 2.25441 15.7178 2.52092 15.8795 5.77147V12.8231C15.8795 14.3675 15.626 14.6493 15.067 14.6493C13.5839 14.6493 9.97483 8.68778 7.83294 1.86338C7.41574 0.537389 6.99455 0.00218539 5.8767 0.00218539H1.50111C0.249521 0.00218539 0 0.646615 0 1.35439C0 2.62578 1.48315 8.91716 6.90872 17.2379C10.5258 22.9198 15.618 26 20.2571 26C23.0377 26 23.3811 25.3162 23.3811 24.1366V19.8419C23.3811 18.4744 23.6465 18.1991 24.5269 18.1991C25.1736 18.1991 26.2875 18.5574 28.8845 21.2946C31.8508 24.5407 32.3418 25.9978 34.0086 25.9978H38.3842C39.6338 25.9978 40.2586 25.3141 39.8993 23.964C39.5061 22.6206 38.0888 20.6654 36.2084 18.352C35.1864 17.0326 33.6593 15.6127 33.1942 14.9027C32.5454 13.9874 32.7331 13.5833 33.1942 12.7706C33.1962 12.7728 38.5279 4.5547 39.0829 1.76071Z" fill="#484848"/>
</svg>
