<svg width="109" height="19" viewBox="0 0 109 19" fill="none" xmlns="http://www.w3.org/2000/svg">
<path d="M15.3984 0.9375V18H11.8711V3.78516H7.32422L7.04297 9.80859C6.92578 11.8398 6.66797 13.4414 6.26953 14.6133C5.87109 15.7773 5.28906 16.6328 4.52344 17.1797C3.75781 17.7188 2.71094 17.9922 1.38281 18H0.46875V15.1758L1.05469 15.1172C1.9375 15 2.56641 14.4922 2.94141 13.5938C3.32422 12.6875 3.56641 11.0781 3.66797 8.76562L3.96094 0.9375H15.3984ZM32.4844 9.85547C32.4844 11.5352 32.1875 13.0078 31.5938 14.2734C31 15.5391 30.1484 16.5156 29.0391 17.2031C27.9375 17.8906 26.6719 18.2344 25.2422 18.2344C23.8281 18.2344 22.5664 17.8945 21.457 17.2148C20.3477 16.5352 19.4883 15.5664 18.8789 14.3086C18.2695 13.043 17.9609 11.5898 17.9531 9.94922V9.10547C17.9531 7.42578 18.2539 5.94922 18.8555 4.67578C19.4648 3.39453 20.3203 2.41406 21.4219 1.73438C22.5312 1.04687 23.7969 0.703125 25.2188 0.703125C26.6406 0.703125 27.9023 1.04687 29.0039 1.73438C30.1133 2.41406 30.9688 3.39453 31.5703 4.67578C32.1797 5.94922 32.4844 7.42188 32.4844 9.09375V9.85547ZM28.9219 9.08203C28.9219 7.29297 28.6016 5.93359 27.9609 5.00391C27.3203 4.07422 26.4062 3.60938 25.2188 3.60938C24.0391 3.60938 23.1289 4.07031 22.4883 4.99219C21.8477 5.90625 21.5234 7.25 21.5156 9.02344V9.85547C21.5156 11.5977 21.8359 12.9492 22.4766 13.9102C23.1172 14.8711 24.0391 15.3516 25.2422 15.3516C26.4219 15.3516 27.3281 14.8906 27.9609 13.9688C28.5938 13.0391 28.9141 11.6875 28.9219 9.91406V9.08203ZM46.2305 3.78516H38.5781V18H35.0625V0.9375H46.2305V3.78516ZM61.6406 9.85547C61.6406 11.5352 61.3438 13.0078 60.75 14.2734C60.1562 15.5391 59.3047 16.5156 58.1953 17.2031C57.0938 17.8906 55.8281 18.2344 54.3984 18.2344C52.9844 18.2344 51.7227 17.8945 50.6133 17.2148C49.5039 16.5352 48.6445 15.5664 48.0352 14.3086C47.4258 13.043 47.1172 11.5898 47.1094 9.94922V9.10547C47.1094 7.42578 47.4102 5.94922 48.0117 4.67578C48.6211 3.39453 49.4766 2.41406 50.5781 1.73438C51.6875 1.04687 52.9531 0.703125 54.375 0.703125C55.7969 0.703125 57.0586 1.04687 58.1602 1.73438C59.2695 2.41406 60.125 3.39453 60.7266 4.67578C61.3359 5.94922 61.6406 7.42188 61.6406 9.09375V9.85547ZM58.0781 9.08203C58.0781 7.29297 57.7578 5.93359 57.1172 5.00391C56.4766 4.07422 55.5625 3.60938 54.375 3.60938C53.1953 3.60938 52.2852 4.07031 51.6445 4.99219C51.0039 5.90625 50.6797 7.25 50.6719 9.02344V9.85547C50.6719 11.5977 50.9922 12.9492 51.6328 13.9102C52.2734 14.8711 53.1953 15.3516 54.3984 15.3516C55.5781 15.3516 56.4844 14.8906 57.1172 13.9688C57.75 13.0391 58.0703 11.6875 58.0781 9.91406V9.08203ZM76.0312 3.78516H70.8047V18H67.2891V3.78516H62.1328V0.9375H76.0312V3.78516ZM88.2773 0.9375H91.8047V18H88.2773V6.66797L81.4453 18H77.9297V0.9375H81.4453V12.293L88.2773 0.9375ZM108.75 18H105.223V3.78516H98.3906V18H94.875V0.9375H108.75V18Z" fill="white"/>
</svg>
